<?xml version="1.0" standalone="no"?><!DOCTYPE svg PUBLIC "-//W3C//DTD SVG 1.1//EN" "http://www.w3.org/Graphics/SVG/1.1/DTD/svg11.dtd"><svg class="icon" width="256px" height="256.00px" viewBox="0 0 1024 1024" version="1.1" xmlns="http://www.w3.org/2000/svg"><path fill="#333333" d="M85.427416 448.211687H127.952958v-42.14921H85.427416v42.14921c0-0.376332 0 0 0 0z"  /><path fill="#333333" d="M85.427416 448.211687H127.952958v-42.14921H85.427416v42.14921c0-0.376332 0 0 0 0zM128.329291 469.286292h42.14921v-42.14921H128.329291v42.14921c-0.376332 0-0.376332 0 0 0zM170.854833 512.188166h42.14921v-42.14921H170.854833v42.14921c0-0.376332 0 0 0 0zM213.380375 554.713708H255.905917v-42.14921H213.380375v42.14921zM256.282249 576.164645h42.14921v-42.149209H256.282249v42.149209c-0.376332 0 0 0 0 0zM298.807791 597.23925h42.14921v-42.14921H298.807791v42.14921zM341.709666 618.690187H383.858875v-42.149209H341.709666v42.149209c-0.376332 0-0.376332 0 0 0zM384.235208 640.141125h42.149209v-42.14921h-42.149209v42.14921c-0.376332 0 0 0 0 0zM426.76075 640.141125h42.14921v-42.14921h-42.14921v42.14921zM469.662624 640.141125H511.811834v-42.14921h-42.14921v42.14921c-0.376332 0-0.376332 0 0 0zM512.188166 640.141125h42.14921v-42.14921h-42.14921v42.14921zM554.713708 640.141125h42.14921v-42.14921h-42.14921v42.14921zM597.615583 640.141125H639.764792v-42.14921h-42.149209v42.14921c-0.376332 0 0 0 0 0zM640.141125 618.690187h42.149209v-42.149209h-42.149209v42.149209zM683.042999 597.23925h42.14921v-42.14921h-42.14921v42.14921c-0.376332 0-0.376332 0 0 0zM725.568541 576.164645H767.717751v-42.149209h-42.14921v42.149209zM768.094083 554.713708h42.14921v-42.14921h-42.14921v42.14921zM810.995957 512.188166h42.14921v-42.14921h-42.14921v42.14921c0-0.376332 0 0 0 0zM853.521499 469.286292H895.670709v-42.14921h-42.14921v42.14921zM85.427416 490.737229H127.952958v-42.14921H85.427416v42.14921zM85.427416 533.262771H127.952958v-42.14921H85.427416v42.14921zM85.427416 576.164645H127.952958v-42.149209H85.427416v42.149209zM85.427416 618.690187H127.952958v-42.149209H85.427416v42.149209zM106.878354 661.592062h42.149209v-42.14921H106.878354v42.14921c-0.376332-0.376332 0 0 0 0zM128.329291 704.117604h42.14921v-42.14921H128.329291v42.14921c-0.376332 0-0.376332 0 0 0zM170.854833 746.643146h42.14921v-42.14921H170.854833v42.14921zM213.380375 768.094083H255.905917v-42.14921H213.380375v42.14921zM256.282249 789.54502h42.14921v-42.14921H256.282249v42.14921c-0.376332-0.376332 0 0 0 0zM298.807791 810.619625h42.14921v-42.14921H298.807791v42.14921zM341.709666 810.619625H383.858875v-42.14921H341.709666v42.14921c-0.376332 0-0.376332 0 0 0zM384.235208 810.619625h42.149209v-42.14921h-42.149209v42.14921c-0.376332 0 0 0 0 0zM426.76075 810.619625h42.14921v-42.14921h-42.14921v42.14921zM469.662624 810.619625H511.811834v-42.14921h-42.14921v42.14921c-0.376332 0-0.376332 0 0 0zM512.188166 810.619625h42.14921v-42.14921h-42.14921v42.14921zM554.713708 810.619625h42.14921v-42.14921h-42.14921v42.14921zM597.615583 810.619625H639.764792v-42.14921h-42.149209v42.14921c-0.376332 0 0 0 0 0zM640.141125 810.619625h42.149209v-42.14921h-42.149209v42.14921zM683.042999 810.619625h42.14921v-42.14921h-42.14921v42.14921c-0.376332 0-0.376332 0 0 0zM725.568541 789.54502H767.717751v-42.14921h-42.14921v42.14921c0-0.376332 0 0 0 0zM768.094083 768.094083h42.14921v-42.14921h-42.14921v42.14921zM810.995957 746.643146h42.14921v-42.14921h-42.14921v42.14921c-0.376332 0 0 0 0 0zM874.596104 618.690187h42.525542v42.525543h-42.525542zM896.423374 618.690187h42.14921v-42.149209h-42.14921v42.149209c-0.376332 0-0.376332 0 0 0zM896.423374 576.164645h42.14921v-42.149209h-42.14921v42.149209c-0.376332 0-0.376332 0 0 0zM896.423374 533.262771h42.14921v-42.14921h-42.14921v42.14921c-0.376332 0-0.376332 0 0 0zM896.423374 490.737229h42.14921v-42.14921h-42.14921v42.14921c-0.376332 0-0.376332 0 0 0zM896.423374 448.211687h42.14921v-42.14921h-42.14921v42.14921c-0.376332-0.376332-0.376332 0 0 0zM853.521499 704.117604H895.670709v-42.14921h-42.14921v42.14921zM106.878354 362.78427h42.149209v42.14921H106.878354V362.78427c-0.376332 0 0 0 0 0zM128.329291 319.882396h42.14921v42.14921H128.329291V319.882396c-0.376332 0.376332-0.376332 0 0 0zM170.854833 277.356854h42.14921V319.882396H170.854833V277.356854zM213.380375 255.905917H255.905917v42.14921H213.380375V255.905917c0 0.376332 0 0 0 0zM256.282249 234.831312h42.14921v42.14921H256.282249V234.831312c-0.376332 0 0 0 0 0zM298.807791 213.380375h42.14921V255.905917H298.807791V213.380375zM341.709666 213.380375H383.858875V255.905917H341.709666V213.380375c-0.376332 0-0.376332 0 0 0zM384.235208 213.380375h42.149209V255.905917h-42.149209V213.380375c-0.376332 0 0 0 0 0zM426.76075 213.380375h42.14921V255.905917h-42.14921V213.380375zM469.662624 213.380375H511.811834V255.905917h-42.14921V213.380375c-0.376332 0-0.376332 0 0 0zM512.188166 213.380375h42.14921V255.905917h-42.14921V213.380375zM554.713708 213.380375h42.14921V255.905917h-42.14921V213.380375zM597.615583 213.380375H639.764792V255.905917h-42.149209V213.380375c-0.376332 0 0 0 0 0zM640.141125 213.380375h42.149209V255.905917h-42.149209V213.380375zM683.042999 213.380375h42.14921V255.905917h-42.14921V213.380375c-0.376332 0-0.376332 0 0 0zM725.568541 234.831312H767.717751v42.14921h-42.14921V234.831312zM768.094083 255.905917h42.14921v42.14921h-42.14921V255.905917c0 0.376332 0 0 0 0zM810.995957 277.356854h42.14921V319.882396h-42.14921V277.356854c-0.376332 0 0 0 0 0zM874.972437 362.78427h42.149209v42.14921h-42.149209V362.78427c-0.376332 0 0 0 0 0zM853.521499 319.882396H895.670709v42.14921h-42.14921V319.882396c0 0.376332 0 0 0 0z"  /></svg>