<?xml version="1.0" standalone="no"?><!DOCTYPE svg PUBLIC "-//W3C//DTD SVG 1.1//EN" "http://www.w3.org/Graphics/SVG/1.1/DTD/svg11.dtd"><svg class="icon" width="256px" height="256.00px" viewBox="0 0 1024 1024" version="1.1" xmlns="http://www.w3.org/2000/svg"><path fill="#000000" d="M512.3651 0L68.403704 256.320088 68.043606 768.320088l443.581291 255.679912 443.951393-256.320088 0.370102-512z m163.204626 192.662681l36.920095 21.265815a21.365842 21.365842 0 0 1-36.870081-21.39585z m-120.853046-69.639042l83.812918 48.2732a63.2673 63.2673 0 0 0-7.64209 30.348298 64.087524 64.087524 0 0 0 118.472395 33.89927l78.491463 44.882272-170.606651 98.536944-102.528035-56.935568z m-85.443363 0.51014v198.714336l-101.697808 56.595475-170.236549-98.256867zM153.777048 354.036807l166.10542 95.906224-0.130036 123.583793-166.215449 96.026257z m197.053882 478.670887l-37.01012-21.35584a21.365842 21.365842 0 1 1 36.920096 21.445864z m122.693549 70.719337l-85.663423-49.383503a64.087524 64.087524 0 1 0-110.820303-64.317587l-80.872113-46.182628 170.586645-98.496933 106.799203 59.286211z m-68.328683-334.761537l0.080022-113.030906 106.879224-59.446255 106.63916 59.186183-0.090025 113.030907-106.89923 59.436252z m153.812058 329.320049V699.341226l98.256867-54.654945 170.196538 98.26687z m311.175087-179.669128l-0.720197 0.410112 0.720197-1.230337z m0-49.303482l-166.135428-95.906224 0.100027-122.613527 166.245458-96.026257z m0 0" /></svg>