<?xml version="1.0" standalone="no"?><!DOCTYPE svg PUBLIC "-//W3C//DTD SVG 1.1//EN" "http://www.w3.org/Graphics/SVG/1.1/DTD/svg11.dtd"><svg class="icon" width="256px" height="256.00px" viewBox="0 0 1024 1024" version="1.1" xmlns="http://www.w3.org/2000/svg"><path fill="#e6e6e6" d="M625.664 132.608v67.072h309.76v43.008h-309.76v69.632h309.76v43.008h-309.76v68.608h309.76v43.008h-309.76v68.608h309.76v43.008h-309.76v68.608h309.76v43.008h-309.76v68.096h309.76v43.008h-309.76v89.088H1024v-757.76H625.664zM0 914.944L577.024 1024V0L0 109.056M229.376 660.48h-89.6l118.272-187.904-112.64-180.736h92.16l65.536 119.808 67.584-119.808h89.088l-112.64 177.664L466.944 660.48h-93.696l-70.144-125.44-73.728 125.44z" /></svg>