<?xml version="1.0" standalone="no"?><!DOCTYPE svg PUBLIC "-//W3C//DTD SVG 1.1//EN" "http://www.w3.org/Graphics/SVG/1.1/DTD/svg11.dtd"><svg class="icon" width="200px" height="200.00px" viewBox="0 0 1024 1024" version="1.1" xmlns="http://www.w3.org/2000/svg"><path d="M817.1 185.9c-25.7 26.4-46 47.3-88.4 47.3-42.4 0-62.7-20.9-88.4-47.3-27.8-28.5-62.3-64.1-128.2-64.1-65.9 0-100.4 35.5-128.2 64.1-25.7 26.4-46 47.3-88.4 47.3-42.4 0-62.7-20.9-88.4-47.3-27.8-28.5-62.3-64.1-128.2-64.1v669.6c42.4 0 62.7 20.9 88.4 47.3 27.8 28.5 62.3 64.1 128.2 64.1s100.4-35.5 128.2-64.1c25.7-26.4 46-47.3 88.4-47.3 42.4 0 62.7 20.9 88.4 47.3 27.8 28.5 62.3 64.1 128.2 64.1 65.9 0 100.4-35.5 128.2-64.1 25.7-26.4 46-47.3 88.4-47.3V121.9c-65.9 0-100.4 35.5-128.2 64z" fill="#2c2c2c" /><path d="M945.3 121.9c-24.6 0-44.9 5-62 12.7v678.9c16.4-13.3 34.6-22.1 62-22.1V121.9z" fill="#2c2c2c" /><path d="M728.6 233.2c-11.7 0-21.7-1.6-30.5-4.4V900c9.4 1.8 19.5 2.8 30.5 2.8 9.6 0 18.5-0.8 26.9-2.2V229.9c-8 2.1-16.8 3.3-26.9 3.3z" fill="#2c2c2c" /><path d="M512 121.9c-16.3 0-30.7 2.2-43.5 5.9v673.4c12-6.1 25.8-9.8 43.5-9.8 18.6 0 33 4 45.4 10.7V128.3c-13.3-4-28.3-6.4-45.4-6.4z" fill="#2c2c2c" /><path d="M295.4 233.2c11.7 0 21.7-1.6 30.5-4.4V900c-9.4 1.8-19.5 2.8-30.5 2.8-9.6 0-18.5-0.8-26.9-2.2V229.9c8 2.1 16.8 3.3 26.9 3.3z" fill="#2c2c2c" /><path d="M78.8 121.9c24.6 0 44.9 5 62 12.7v678.9c-16.4-13.3-34.6-22.1-62-22.1V121.9z" fill="#2c2c2c" /><path d="M945.3 107.9c-71.7 0-110.1 39.5-138.1 68.3-25.2 25.9-41.9 43.1-78.5 43.1s-53.3-17.1-78.5-43.1c-24.2-24.9-54.4-55.9-106-65.4-7.5-1.4-14.8 3.6-16.2 11.2-1.4 7.6 3.6 14.8 11.1 16.2 42.9 7.9 68.5 34.2 91.1 57.5 26.9 27.6 50.1 51.5 98.4 51.5 48.3 0 71.5-23.8 98.4-51.5 25.1-25.8 53.3-54.8 104.4-59.3v586c-62.9 4.7-98.1 40.9-124.3 67.7-25.2 25.9-41.9 43.1-78.5 43.1s-53.3-17.1-78.5-43.1c-28-28.8-66.4-68.3-138.1-68.3s-110.1 39.5-138.1 68.3c-25.2 25.9-41.9 43.1-78.5 43.1s-53.3-17.1-78.5-43.1c-26.2-26.9-61.4-63-124.3-67.7V389.8c0-7.7-6.2-13.9-13.9-13.9s-13.9 6.2-13.9 13.9v401.6c0 7.7 6.2 13.9 13.9 13.9 36.6 0 53.3 17.1 78.5 43.1 28 28.8 66.4 68.3 138.1 68.3s110.1-39.5 138.1-68.3c25.2-25.9 41.9-43.1 78.5-43.1s53.3 17.1 78.5 43.1c28 28.8 66.4 68.3 138.1 68.3 71.7 0 110.1-39.5 138.1-68.3 25.2-25.9 41.9-43.1 78.5-43.1 7.7 0 13.9-6.2 13.9-13.9V121.9c0.2-7.7-6-14-13.7-14z" fill="#2c2c2c" /><path d="M78.8 314.7c7.7 0 13.9-6.2 13.9-13.9V136.4c51.1 4.5 79.3 33.5 104.4 59.3 26.9 27.6 50.1 51.5 98.4 51.5 48.3 0 71.5-23.8 98.4-51.5 22.6-23.2 48.2-49.6 91.2-57.5 7.5-1.4 12.5-8.6 11.1-16.2-1.4-7.6-8.6-12.6-16.2-11.2-51.6 9.5-81.8 40.5-106 65.4-25.2 25.9-41.9 43.1-78.5 43.1s-53.3-17.1-78.5-43.1c-28-28.8-66.4-68.3-138.1-68.3-7.7 0-13.9 6.2-13.9 13.9v178.9c-0.1 7.8 6.1 14 13.8 14z" fill="#2c2c2c" /><path d="M846.9 829c-27.3 28.1-58.2 59.9-118.3 59.9s-91-31.8-118.3-59.9c-26.9-27.6-50.1-51.5-98.4-51.5-48.3 0-71.5 23.8-98.4 51.5-27.3 28.1-58.2 59.9-118.3 59.9-60 0-91-31.8-118.3-59.9-24.2-24.8-45.4-46.6-84.5-50.8v-27.9c51.1 4.5 79.3 33.5 104.4 59.3 26.9 27.6 50.1 51.5 98.4 51.5 48.3 0 71.5-23.8 98.4-51.5 27.3-28.1 58.2-59.9 118.3-59.9 60 0 91 31.8 118.3 59.9 26.9 27.6 50.1 51.5 98.4 51.5s71.5-23.8 98.4-51.5c25.1-25.8 53.3-54.8 104.4-59.3v27.9c-39.1 4.1-60.3 25.9-84.5 50.8z" fill="#2c2c2c" /></svg>